<?xml version="1.0" encoding="UTF-8"?>
<svg width="600" height="400" viewBox="0 0 600 400" fill="none" xmlns="http://www.w3.org/2000/svg">
  <!-- Background with gradient -->
  <rect width="600" height="400" rx="12" fill="url(#paint0_linear)" />
  
  <!-- Dashboard elements -->
  <rect x="50" y="50" width="500" height="300" rx="8" fill="white" fill-opacity="0.95" />
  
  <!-- Header -->
  <rect x="70" y="70" width="460" height="40" rx="4" fill="#F3F4F6" />
  <circle cx="90" cy="90" r="10" fill="#4F46E5" />
  <rect x="110" y="85" width="100" height="10" rx="2" fill="#6B7280" />
  <rect x="400" y="85" width="80" height="10" rx="2" fill="#6B7280" />
  <rect x="490" y="85" width="20" height="10" rx="2" fill="#6B7280" />
  
  <!-- Sidebar -->
  <rect x="70" y="120" width="120" height="210" rx="4" fill="#F3F4F6" />
  <rect x="85" y="140" width="90" height="10" rx="2" fill="#6B7280" />
  <rect x="85" y="160" width="90" height="10" rx="2" fill="#6B7280" />
  <rect x="85" y="180" width="90" height="10" rx="2" fill="#6B7280" />
  <rect x="85" y="200" width="90" height="10" rx="2" fill="#6B7280" />
  <rect x="85" y="220" width="90" height="10" rx="2" fill="#6B7280" />
  <rect x="85" y="240" width="90" height="10" rx="2" fill="#6B7280" />
  <rect x="85" y="260" width="90" height="10" rx="2" fill="#6B7280" />
  <rect x="85" y="280" width="90" height="10" rx="2" fill="#6B7280" />
  
  <!-- Main content -->
  <rect x="210" y="120" width="320" height="60" rx="4" fill="#EEF2FF" />
  <rect x="230" y="135" width="150" height="12" rx="2" fill="#4F46E5" />
  <rect x="230" y="155" width="200" height="10" rx="2" fill="#6B7280" />
  
  <!-- Cards -->
  <rect x="210" y="190" width="150" height="140" rx="4" fill="#F3F4F6" />
  <rect x="225" y="205" width="120" height="10" rx="2" fill="#6B7280" />
  <rect x="225" y="225" width="80" height="8" rx="2" fill="#9CA3AF" />
  <rect x="225" y="245" width="120" height="70" rx="2" fill="#E0E7FF" />
  <circle cx="285" cy="280" r="25" fill="#4F46E5" fill-opacity="0.7" />
  <path d="M275 280L283 288L295 272" stroke="white" stroke-width="3" stroke-linecap="round" stroke-linejoin="round" />
  
  <rect x="380" y="190" width="150" height="140" rx="4" fill="#F3F4F6" />
  <rect x="395" y="205" width="120" height="10" rx="2" fill="#6B7280" />
  <rect x="395" y="225" width="80" height="8" rx="2" fill="#9CA3AF" />
  
  <!-- Chart in second card -->
  <rect x="395" y="245" width="120" height="70" rx="2" fill="#E0E7FF" />
  <path d="M405 295 L415 275 L425 285 L435 265 L445 280 L455 250 L465 270 L475 260 L485 290 L495 245 L505 295" 
        stroke="#4F46E5" stroke-width="2" fill="none" />
  <circle cx="415" cy="275" r="3" fill="#4F46E5" />
  <circle cx="425" cy="285" r="3" fill="#4F46E5" />
  <circle cx="435" cy="265" r="3" fill="#4F46E5" />
  <circle cx="445" cy="280" r="3" fill="#4F46E5" />
  <circle cx="455" cy="250" r="3" fill="#4F46E5" />
  <circle cx="465" cy="270" r="3" fill="#4F46E5" />
  <circle cx="475" cy="260" r="3" fill="#4F46E5" />
  <circle cx="485" cy="290" r="3" fill="#4F46E5" />
  <circle cx="495" cy="245" r="3" fill="#4F46E5" />
  
  <!-- QR Code icon -->
  <rect x="520" y="50" width="60" height="60" rx="8" fill="white" fill-opacity="0.9" />
  <rect x="530" y="60" width="40" height="40" rx="4" fill="#4F46E5" fill-opacity="0.2" />
  <rect x="535" y="65" width="30" height="30" stroke="#4F46E5" stroke-width="2" fill="none" />
  <rect x="540" y="70" width="8" height="8" fill="#4F46E5" />
  <rect x="552" y="70" width="8" height="8" fill="#4F46E5" />
  <rect x="540" y="82" width="8" height="8" fill="#4F46E5" />
  <rect x="552" y="82" width="8" height="8" fill="#4F46E5" />
  
  <!-- Floating elements -->
  <circle cx="40" cy="150" r="15" fill="#4F46E5" fill-opacity="0.3" />
  <circle cx="560" cy="280" r="20" fill="#4F46E5" fill-opacity="0.3" />
  <circle cx="520" cy="180" r="10" fill="#4F46E5" fill-opacity="0.3" />
  <circle cx="80" cy="350" r="12" fill="#4F46E5" fill-opacity="0.3" />
  
  <!-- Gradient definitions -->
  <defs>
    <linearGradient id="paint0_linear" x1="0" y1="0" x2="600" y2="400" gradientUnits="userSpaceOnUse">
      <stop stop-color="#4F46E5" />
      <stop offset="1" stop-color="#7C3AED" />
    </linearGradient>
  </defs>
</svg>
